<?xml version="1.0" ?>
<svg viewBox="0 0 40 40" xmlns="http://www.w3.org/2000/svg">
    <title/>
    <g id="Messenger">
        <path d="M20,8.08C13.24,8.08,8,13,8,19.7a11.37,11.37,0,0,0,3.77,8.61,1,1,0,0,1,.32.68l.07,2.13a1,1,0,0,0,1.35.85l2.38-1a.94.94,0,0,1,.64-.05,13.1,13.1,0,0,0,3.47.46c6.76,0,12-4.94,12-11.63S26.76,8.08,20,8.08ZM27.2,17l-3.52,5.59a1.8,1.8,0,0,1-2.6.48L18.28,21a.72.72,0,0,0-.87,0l-3.79,2.87a.57.57,0,0,1-.82-.76l3.52-5.58a1.8,1.8,0,0,1,2.6-.48l2.81,2.1a.72.72,0,0,0,.86,0l3.79-2.87A.56.56,0,0,1,27.2,17Z" fill="rgb(196, 193, 193)"/>
    </g>
</svg>